<svg xmlns="http://www.w3.org/2000/svg" width="40" height="40" viewBox="0 0 40 40"><switch><g><g opacity=".52"><path d="M17.5 4.059h-15l1.792 6.793h8.727l1.95-6.038H17.5z"/><circle cx="6.046" cy="12.667" r="1.274"/><circle cx="11.376" cy="12.667" r="1.273"/></g><g fill="#FFF"><path d="M17.5 5.059h-15l1.792 6.793h8.727l1.95-6.038H17.5z"/><circle cx="6.046" cy="13.667" r="1.274"/><circle cx="11.376" cy="13.667" r="1.273"/></g><g opacity=".28"><path d="M31.79 3.612v2.306a4.338 4.338 0 0 1 2.543 3.944c0 2.389-1.943 4.332-4.332 4.332s-4.333-1.943-4.333-4.332a4.338 4.338 0 0 1 2.544-3.944V3.612c-2.717.779-4.712 3.286-4.712 6.25 0 3.584 2.916 6.5 6.5 6.5s6.5-2.916 6.5-6.5a6.512 6.512 0 0 0-4.71-6.25z"/><path d="M29.016 1.639h1.969v6.007h-1.969z"/></g><g fill="#FFF"><path d="M31.79 4.612v2.306a4.338 4.338 0 0 1 2.543 3.944c0 2.389-1.943 4.332-4.332 4.332s-4.333-1.943-4.333-4.332a4.338 4.338 0 0 1 2.544-3.944V4.612a6.512 6.512 0 0 0-4.711 6.25c0 3.584 2.916 6.5 6.5 6.5s6.5-2.916 6.5-6.5a6.515 6.515 0 0 0-4.711-6.25z"/><path d="M29.016 2.639h1.969v6.007h-1.969z"/></g><g><path d="M11.704 24c.936 0 1.404.639 1.404 1.37 0 .913-.813 1.758-1.873 1.758-.889 0-1.407-.525-1.383-1.393A1.803 1.803 0 0 1 11.704 24zM8.816 38c-.74 0-1.282-.457-.765-2.467l.85-3.564c.148-.57.172-.799 0-.799-.223 0-1.184.395-1.752.783l-.369-.617c1.801-1.529 3.873-2.426 4.761-2.426.738 0 .863.891.492 2.26l-.972 3.746c-.172.662-.098.891.074.891.223 0 .949-.275 1.666-.846l.418.572C11.469 37.315 9.557 38 8.816 38z" opacity=".75"/><path fill="#FFF" d="M11.704 23c.936 0 1.404.639 1.404 1.37 0 .913-.813 1.758-1.873 1.758-.889 0-1.407-.525-1.383-1.393A1.803 1.803 0 0 1 11.704 23zM8.816 37c-.74 0-1.282-.457-.765-2.467l.85-3.564c.148-.57.172-.799 0-.799-.223 0-1.184.395-1.752.783l-.369-.617c1.801-1.529 3.873-2.426 4.761-2.426.738 0 .863.891.492 2.26l-.972 3.746c-.172.662-.098.891.074.891.223 0 .949-.275 1.666-.846l.418.572C11.469 36.315 9.557 37 8.816 37z"/></g></g></switch></svg>