<?xml version="1.0" encoding="utf-8"?>
<!-- Generator: Adobe Illustrator 16.0.0, SVG Export Plug-In . SVG Version: 6.00 Build 0)  -->
<!DOCTYPE svg PUBLIC "-//W3C//DTD SVG 1.1//EN" "http://www.w3.org/Graphics/SVG/1.1/DTD/svg11.dtd">
<svg version="1.1" id="Calque_1" xmlns="http://www.w3.org/2000/svg" xmlns:xlink="http://www.w3.org/1999/xlink" x="0px" y="0px"
	 width="150px" height="50px" viewBox="0 0 150 50" enable-background="new 0 0 150 50" xml:space="preserve">
<g>
	<path d="M106.727,45.154c-1.271,0-3.088-0.551-3.985-2.688c-0.824-1.955-2.62-1.693-2.823-1.658l-0.316-1.66
		c2-0.348,3.969,0.768,4.698,2.662c0.82,1.948,2.651,1.652,2.857,1.613l0.343,1.657C107.281,45.126,107.02,45.154,106.727,45.154z
		 M67.72,39.164l-2.058,4.84h-2.081l7.871-17.869l7.668,17.869h-2.104l-2.012-4.84l-0.747-1.766l-2.85-6.832l-2.918,6.832
		L67.72,39.164z"/>
	<circle cx="71.351" cy="40.371" r="1.155"/>
	<path d="M7.15,42.238h4.705v1.764H5.25V26.945h1.9V42.238z M13.732,26.945h8.844v1.766h-6.944v5.066h6.741v1.765h-6.741v6.696
		h6.944v1.764h-8.844V26.945z M32.362,30.271c-0.347-0.588-0.743-1.045-1.188-1.369c-0.445-0.324-1.029-0.485-1.753-0.485
		c-0.377,0-0.735,0.063-1.075,0.192c-0.34,0.127-0.641,0.309-0.905,0.541c-0.263,0.234-0.475,0.52-0.622,0.838
		c-0.15,0.324-0.226,0.684-0.226,1.074c0,0.362,0.087,0.684,0.261,0.961c0.173,0.279,0.388,0.523,0.645,0.735
		c0.256,0.212,0.543,0.394,0.859,0.542l0.905,0.43l1.131,0.5c0.558,0.24,1.082,0.5,1.572,0.778c0.491,0.279,0.924,0.604,1.302,0.974
		c0.376,0.369,0.674,0.801,0.893,1.289c0.218,0.49,0.329,1.076,0.329,1.754c0,0.754-0.141,1.451-0.419,2.092
		c-0.268,0.627-0.661,1.191-1.154,1.662c-0.496,0.473-1.075,0.848-1.708,1.107c-0.659,0.274-1.367,0.413-2.081,0.408
		c-0.646,0.005-1.29-0.102-1.9-0.316c-0.572-0.203-1.104-0.505-1.572-0.893c-0.466-0.393-0.86-0.864-1.164-1.393
		c-0.325-0.562-0.555-1.174-0.679-1.811l1.855-0.521c0.114,0.851,0.508,1.639,1.119,2.24c0.295,0.287,0.638,0.514,1.03,0.68
		s0.814,0.248,1.266,0.248c0.453,0,0.891-0.082,1.312-0.248c0.412-0.16,0.792-0.395,1.12-0.69c0.325-0.294,0.584-0.646,0.78-1.052
		c0.198-0.417,0.299-0.873,0.294-1.335c0-0.497-0.09-0.919-0.271-1.267c-0.178-0.344-0.42-0.65-0.713-0.904
		c-0.306-0.265-0.644-0.488-1.007-0.667c-0.382-0.192-0.766-0.377-1.154-0.556l-1.04-0.451c-0.485-0.221-0.961-0.463-1.425-0.726
		c-0.433-0.241-0.833-0.538-1.188-0.883c-0.341-0.332-0.614-0.728-0.804-1.164c-0.196-0.444-0.294-0.978-0.294-1.596
		c0-0.662,0.128-1.263,0.385-1.798c0.249-0.525,0.607-0.992,1.051-1.367c0.452-0.381,0.97-0.676,1.527-0.872
		c0.581-0.204,1.193-0.308,1.81-0.306c0.95,0,1.809,0.229,2.579,0.689c0.769,0.461,1.38,1.111,1.832,1.956L32.362,30.271z
		 M46.454,25.975l6.198,14.317l6.22-14.317l3.462,18.027h-1.946l-2.194-11.536h-0.045l-5.497,12.237l-5.474-12.237h-0.045
		l-2.194,11.536h-1.946L46.454,25.975z M82.217,44.002h-1.9V26.945h2.466c0.813,0,1.594,0.064,2.342,0.193
		c0.746,0.127,1.41,0.365,1.989,0.711c0.58,0.348,1.045,0.826,1.392,1.438c0.349,0.609,0.521,1.398,0.521,2.363
		c0,1.328-0.381,2.412-1.143,3.258c-0.763,0.845-1.807,1.326-3.134,1.447l5.431,7.646h-2.332l-5.156-7.487h-0.475V44.002
		L82.217,44.002z M82.217,34.84h0.588c0.543,0,1.07-0.033,1.582-0.102c0.482-0.057,0.95-0.203,1.381-0.43
		c0.407-0.218,0.735-0.527,0.983-0.928s0.374-0.931,0.374-1.595c0-0.693-0.122-1.248-0.361-1.662
		c-0.242-0.415-0.563-0.724-0.962-0.929c-0.399-0.203-0.86-0.336-1.38-0.396c-0.545-0.063-1.093-0.093-1.641-0.091h-0.564V34.84z
		 M111.878,37.104v0.973c0,0.331,0.022,0.664,0.069,0.994c0.044,0.332,0.119,0.654,0.227,0.961c0.104,0.311,0.256,0.602,0.452,0.873
		c0.376,0.527,0.886,0.931,1.526,1.209c0.602,0.271,1.252,0.414,1.912,0.418c0.617,0,1.23-0.131,1.843-0.395
		c0.585-0.246,1.101-0.629,1.504-1.119c0.228-0.271,0.396-0.565,0.509-0.883c0.114-0.316,0.196-0.646,0.248-0.984
		c0.054-0.34,0.08-0.684,0.08-1.028V26.945h1.898v10.678c0,0.468-0.014,0.908-0.043,1.322c-0.029,0.408-0.094,0.813-0.191,1.209
		c-0.1,0.395-0.25,0.771-0.453,1.133c-0.223,0.387-0.492,0.744-0.805,1.063c-0.582,0.63-1.297,1.124-2.092,1.447
		c-0.791,0.33-1.641,0.498-2.498,0.498c-0.816,0-1.625-0.149-2.388-0.441c-0.76-0.283-1.45-0.727-2.024-1.301
		c-0.346-0.323-0.646-0.693-0.894-1.098c-0.216-0.364-0.384-0.756-0.498-1.164c-0.114-0.418-0.189-0.846-0.226-1.277
		c-0.039-0.463-0.059-0.928-0.057-1.392V26.945h1.897v10.158H111.878z M124.396,26.945h8.846v1.766h-6.943v5.066h6.74v1.765h-6.74
		v6.696h6.943v1.764h-8.846V26.945L124.396,26.945z M143.125,30.271c-0.348-0.588-0.743-1.045-1.188-1.369
		c-0.445-0.324-1.03-0.485-1.754-0.485c-0.377,0-0.733,0.063-1.074,0.192c-0.332,0.123-0.639,0.307-0.903,0.541
		c-0.55,0.482-0.859,1.182-0.849,1.912c0,0.362,0.086,0.684,0.26,0.961c0.173,0.279,0.388,0.523,0.646,0.735
		c0.256,0.212,0.543,0.394,0.857,0.542l0.904,0.43l1.131,0.5c0.559,0.24,1.082,0.5,1.572,0.778c0.488,0.279,0.924,0.604,1.301,0.974
		s0.675,0.801,0.895,1.289c0.219,0.49,0.327,1.076,0.327,1.754c0,0.754-0.14,1.451-0.418,2.092
		c-0.269,0.627-0.661,1.191-1.154,1.662c-0.495,0.473-1.075,0.848-1.708,1.107c-0.658,0.274-1.366,0.413-2.08,0.408
		c-0.68,0-1.312-0.105-1.899-0.316c-0.572-0.203-1.104-0.506-1.572-0.893c-0.466-0.393-0.86-0.863-1.165-1.393
		c-0.322-0.563-0.552-1.174-0.678-1.811l1.855-0.521c0.113,0.851,0.506,1.639,1.117,2.24c0.295,0.287,0.639,0.514,1.03,0.68
		s0.813,0.248,1.267,0.248s0.889-0.082,1.313-0.248c0.421-0.166,0.795-0.396,1.119-0.69s0.584-0.646,0.781-1.052
		c0.194-0.407,0.293-0.854,0.293-1.335c0-0.497-0.091-0.919-0.271-1.267c-0.178-0.344-0.42-0.65-0.712-0.904
		c-0.306-0.265-0.645-0.488-1.007-0.667c-0.382-0.19-0.766-0.376-1.153-0.556l-1.04-0.451c-0.486-0.221-0.961-0.463-1.426-0.726
		c-0.434-0.241-0.832-0.538-1.188-0.883c-0.341-0.333-0.613-0.728-0.804-1.164c-0.194-0.444-0.294-0.978-0.294-1.596
		c0-0.662,0.128-1.263,0.385-1.798c0.258-0.534,0.605-0.991,1.051-1.367c0.452-0.381,0.97-0.677,1.527-0.872
		c0.582-0.204,1.194-0.308,1.811-0.306c0.948,0,1.81,0.229,2.578,0.689c0.77,0.461,1.381,1.111,1.832,1.956L143.125,30.271
		L143.125,30.271z M99.068,26.648c-4.901,0-8.875,3.951-8.875,8.826c0,4.873,3.974,8.825,8.875,8.825
		c4.902,0,8.875-3.952,8.875-8.825C107.943,30.6,103.973,26.648,99.068,26.648z M99.068,42.536c-3.861,0-6.992-3.162-6.992-7.062
		c0-3.9,3.131-7.063,6.992-7.063c3.863,0,6.992,3.162,6.992,7.063C106.061,39.374,102.932,42.536,99.068,42.536z M30.353,21.577
		h3.867l-0.777,1.764h-4.99V6.285h1.9V21.577z M98.809,6.724h3.211c0.611-0.001,1.223,0.026,1.832,0.08
		c0.574,0.05,1.143,0.152,1.697,0.305c0.553,0.155,1.088,0.367,1.596,0.634c0.545,0.289,1.057,0.638,1.525,1.041
		c0.98,0.845,1.698,1.817,2.15,2.918c0.451,1.101,0.677,2.292,0.677,3.574c0,1.252-0.226,2.413-0.677,3.483
		c-0.452,1.071-1.155,2.029-2.105,2.874c-0.469,0.423-0.985,0.791-1.538,1.097c-0.505,0.276-1.04,0.497-1.594,0.656
		c-0.562,0.161-1.139,0.267-1.722,0.317c-0.594,0.053-1.225,0.079-1.889,0.079h-3.166V6.724H98.809z M102.087,22.015
		c0.513,0,1.013-0.022,1.493-0.067c0.471-0.043,0.937-0.13,1.391-0.26c0.45-0.13,0.883-0.313,1.289-0.544
		c0.438-0.25,0.845-0.549,1.213-0.893c0.689-0.637,1.234-1.416,1.594-2.284c0.354-0.86,0.531-1.765,0.531-2.715
		c0.004-0.962-0.185-1.916-0.553-2.805c-0.369-0.887-0.938-1.677-1.664-2.307c-0.783-0.694-1.609-1.142-2.479-1.346
		c-0.923-0.21-1.868-0.313-2.815-0.305h-1.38v13.526H102.087z M113.201,6.724h8.847v1.765h-6.944v5.066h6.738v1.765h-6.738v6.695
		h6.944v1.765h-8.847V6.724z M62.814,5.345l6.196,14.318l6.222-14.318l3.459,18.027h-1.943l-2.194-11.536h-0.046L69.01,24.073
		l-5.473-12.237h-0.045l-2.195,11.536h-1.946L62.814,5.345z M87.982,6.432c-4.901,0-8.877,3.952-8.877,8.826
		s3.976,8.826,8.877,8.826s8.875-3.952,8.875-8.826S92.885,6.432,87.982,6.432z M87.982,22.319c-3.862,0-6.992-3.162-6.992-7.062
		c0-3.9,3.13-7.062,6.992-7.062c3.863,0,6.992,3.162,6.992,7.062C94.975,19.157,91.846,22.319,87.982,22.319z M39.403,18.502
		l-2.058,4.841h-2.081l7.872-17.87l7.668,17.87H48.7l-2.014-4.841l-0.747-1.764L43.09,9.907l-2.918,6.831L39.403,18.502z"/>
	<circle cx="43.034" cy="19.711" r="1.155"/>
	<circle cx="135.613" cy="14.408" r="1.155"/>
	<circle cx="14.887" cy="14.408" r="1.155"/>
	<path fill="#FFFFFF" d="M106.227,44.654c-1.271,0-3.088-0.551-3.985-2.688c-0.824-1.955-2.62-1.693-2.823-1.658l-0.316-1.66
		c2-0.348,3.969,0.768,4.698,2.662c0.82,1.948,2.651,1.652,2.857,1.613L107,44.581C106.781,44.626,106.52,44.654,106.227,44.654z
		 M67.22,38.664l-2.058,4.84h-2.081l7.871-17.87l7.668,17.87h-2.104l-2.012-4.84l-0.747-1.766l-2.85-6.832l-2.918,6.832
		L67.22,38.664z M6.65,41.738h4.705v1.764H4.75V26.445h1.9V41.738z M13.232,26.445h8.844v1.766h-6.944v5.066h6.741v1.765h-6.741
		v6.696h6.944v1.764h-8.844V26.445z M31.862,29.771c-0.347-0.588-0.743-1.045-1.188-1.369c-0.445-0.324-1.029-0.485-1.753-0.485
		c-0.377,0-0.735,0.063-1.075,0.192c-0.34,0.127-0.641,0.309-0.905,0.541c-0.263,0.234-0.475,0.52-0.622,0.838
		c-0.15,0.324-0.226,0.684-0.226,1.074c0,0.362,0.087,0.684,0.261,0.961c0.173,0.279,0.388,0.523,0.645,0.735
		c0.256,0.212,0.543,0.394,0.859,0.542l0.905,0.43l1.131,0.5c0.558,0.24,1.082,0.5,1.572,0.778c0.491,0.279,0.924,0.604,1.302,0.974
		c0.376,0.369,0.674,0.801,0.893,1.289c0.218,0.49,0.329,1.076,0.329,1.754c0,0.754-0.141,1.451-0.419,2.092
		c-0.268,0.627-0.661,1.191-1.154,1.662c-0.496,0.473-1.075,0.848-1.708,1.107c-0.659,0.274-1.367,0.413-2.081,0.408
		c-0.646,0.005-1.29-0.102-1.9-0.316c-0.572-0.203-1.104-0.505-1.572-0.893c-0.466-0.393-0.86-0.864-1.164-1.393
		c-0.325-0.562-0.555-1.174-0.679-1.811l1.855-0.521c0.114,0.851,0.508,1.639,1.119,2.24c0.295,0.287,0.638,0.514,1.03,0.68
		s0.814,0.248,1.266,0.248c0.453,0,0.891-0.082,1.312-0.248c0.412-0.16,0.792-0.395,1.12-0.69c0.325-0.294,0.584-0.646,0.78-1.052
		c0.198-0.417,0.299-0.873,0.294-1.335c0-0.497-0.09-0.919-0.271-1.267c-0.178-0.344-0.42-0.65-0.713-0.904
		c-0.306-0.265-0.644-0.488-1.007-0.667c-0.382-0.192-0.766-0.377-1.154-0.556l-1.04-0.451c-0.485-0.221-0.961-0.463-1.425-0.726
		c-0.433-0.241-0.833-0.538-1.188-0.883c-0.341-0.332-0.614-0.728-0.804-1.164c-0.196-0.444-0.294-0.978-0.294-1.596
		c0-0.662,0.128-1.263,0.385-1.798c0.249-0.525,0.607-0.992,1.051-1.367c0.452-0.381,0.97-0.676,1.527-0.872
		c0.581-0.204,1.193-0.308,1.81-0.306c0.95,0,1.809,0.229,2.579,0.689c0.769,0.461,1.38,1.111,1.832,1.956L31.862,29.771z
		 M45.954,25.474l6.198,14.318l6.22-14.318l3.462,18.028h-1.946l-2.194-11.536h-0.045l-5.497,12.237l-5.474-12.237h-0.045
		l-2.194,11.536h-1.946L45.954,25.474z M81.717,43.502h-1.9V26.445h2.466c0.813,0,1.594,0.064,2.342,0.193
		c0.746,0.127,1.41,0.365,1.989,0.711c0.58,0.348,1.045,0.826,1.392,1.438c0.349,0.609,0.521,1.398,0.521,2.363
		c0,1.328-0.381,2.412-1.143,3.258c-0.763,0.845-1.807,1.326-3.134,1.447l5.431,7.646h-2.332l-5.156-7.487h-0.475V43.502
		L81.717,43.502z M81.717,34.34h0.588c0.543,0,1.07-0.033,1.582-0.102c0.482-0.057,0.95-0.203,1.381-0.43
		c0.407-0.218,0.735-0.527,0.983-0.928s0.374-0.931,0.374-1.595c0-0.693-0.122-1.248-0.361-1.662
		c-0.242-0.415-0.563-0.724-0.962-0.929c-0.399-0.203-0.86-0.336-1.38-0.396c-0.545-0.063-1.093-0.093-1.641-0.091h-0.564V34.34z
		 M111.378,36.604v0.973c0,0.331,0.022,0.664,0.069,0.994c0.044,0.332,0.119,0.654,0.227,0.961c0.104,0.311,0.256,0.602,0.452,0.873
		c0.376,0.527,0.886,0.931,1.526,1.209c0.602,0.271,1.252,0.414,1.912,0.418c0.617,0,1.23-0.131,1.843-0.395
		c0.585-0.246,1.101-0.629,1.504-1.119c0.228-0.271,0.396-0.565,0.509-0.883c0.114-0.316,0.196-0.646,0.248-0.984
		c0.054-0.34,0.08-0.684,0.08-1.028V26.445h1.898v10.678c0,0.468-0.014,0.908-0.043,1.322c-0.029,0.408-0.094,0.813-0.191,1.209
		c-0.1,0.395-0.25,0.771-0.453,1.133c-0.223,0.387-0.492,0.744-0.805,1.063c-0.582,0.63-1.297,1.124-2.092,1.447
		c-0.791,0.33-1.641,0.498-2.498,0.498c-0.816,0-1.625-0.149-2.388-0.441c-0.76-0.283-1.45-0.727-2.024-1.301
		c-0.346-0.323-0.646-0.693-0.894-1.098c-0.216-0.364-0.384-0.756-0.498-1.164c-0.114-0.418-0.189-0.846-0.226-1.277
		c-0.039-0.463-0.059-0.928-0.057-1.392V26.445h1.897v10.158H111.378z M123.896,26.445h8.846v1.766h-6.943v5.066h6.74v1.765h-6.74
		v6.696h6.943v1.764h-8.846V26.445L123.896,26.445z M142.625,29.771c-0.348-0.588-0.743-1.045-1.188-1.369
		c-0.445-0.324-1.03-0.485-1.754-0.485c-0.377,0-0.733,0.063-1.074,0.192c-0.332,0.123-0.639,0.307-0.903,0.541
		c-0.55,0.482-0.859,1.182-0.849,1.912c0,0.362,0.086,0.684,0.26,0.961c0.173,0.279,0.388,0.523,0.646,0.735
		c0.256,0.212,0.543,0.394,0.857,0.542l0.904,0.43l1.131,0.5c0.559,0.24,1.082,0.5,1.572,0.778c0.488,0.279,0.924,0.604,1.301,0.974
		s0.675,0.801,0.895,1.289c0.219,0.49,0.327,1.076,0.327,1.754c0,0.754-0.14,1.451-0.418,2.092
		c-0.269,0.627-0.661,1.191-1.154,1.662c-0.495,0.473-1.075,0.848-1.708,1.107c-0.658,0.274-1.366,0.413-2.08,0.408
		c-0.68,0-1.312-0.105-1.899-0.316c-0.572-0.203-1.104-0.506-1.572-0.893c-0.466-0.393-0.86-0.863-1.165-1.393
		c-0.322-0.563-0.552-1.174-0.678-1.811l1.855-0.521c0.113,0.851,0.506,1.639,1.117,2.24c0.295,0.287,0.639,0.514,1.03,0.68
		s0.813,0.248,1.267,0.248s0.889-0.082,1.313-0.248c0.421-0.166,0.795-0.396,1.119-0.69s0.584-0.646,0.781-1.052
		c0.194-0.407,0.293-0.854,0.293-1.335c0-0.497-0.091-0.919-0.271-1.267c-0.178-0.344-0.42-0.65-0.712-0.904
		c-0.306-0.265-0.645-0.488-1.007-0.667c-0.382-0.19-0.766-0.376-1.153-0.556l-1.04-0.451c-0.486-0.221-0.961-0.463-1.426-0.726
		c-0.434-0.241-0.832-0.538-1.188-0.883c-0.341-0.333-0.613-0.728-0.804-1.164c-0.194-0.444-0.294-0.978-0.294-1.596
		c0-0.662,0.128-1.263,0.385-1.798c0.258-0.534,0.605-0.991,1.051-1.367c0.452-0.381,0.97-0.677,1.527-0.872
		c0.582-0.204,1.194-0.308,1.811-0.306c0.948,0,1.81,0.229,2.578,0.689c0.77,0.461,1.381,1.111,1.832,1.956L142.625,29.771
		L142.625,29.771z"/>
	<path fill="#FFFFFF" d="M98.568,26.148c-4.901,0-8.875,3.951-8.875,8.826c0,4.873,3.974,8.825,8.875,8.825
		c4.902,0,8.875-3.952,8.875-8.825C107.443,30.1,103.473,26.148,98.568,26.148z M98.568,42.036c-3.861,0-6.992-3.162-6.992-7.062
		c0-3.9,3.131-7.063,6.992-7.063c3.863,0,6.992,3.162,6.992,7.063C105.561,38.874,102.432,42.036,98.568,42.036z M29.853,21.077
		h3.867l-0.777,1.764h-4.99V5.785h1.9V21.077z M98.309,6.224h3.211c0.611-0.001,1.223,0.026,1.832,0.08
		c0.574,0.05,1.143,0.152,1.697,0.305c0.553,0.155,1.088,0.367,1.596,0.634c0.545,0.289,1.057,0.638,1.525,1.041
		c0.98,0.845,1.698,1.817,2.15,2.918c0.451,1.101,0.677,2.292,0.677,3.574c0,1.252-0.226,2.413-0.677,3.483
		c-0.452,1.071-1.155,2.029-2.105,2.874c-0.469,0.423-0.985,0.791-1.538,1.097c-0.505,0.276-1.04,0.497-1.594,0.656
		c-0.562,0.161-1.139,0.267-1.722,0.317c-0.594,0.053-1.225,0.079-1.889,0.079h-3.166V6.224H98.309z M101.587,21.515
		c0.513,0,1.013-0.022,1.493-0.067c0.471-0.043,0.937-0.13,1.391-0.26c0.45-0.13,0.883-0.313,1.289-0.544
		c0.438-0.25,0.845-0.549,1.213-0.893c0.689-0.637,1.234-1.416,1.594-2.284c0.354-0.86,0.531-1.765,0.531-2.715
		c0.004-0.962-0.185-1.916-0.553-2.805c-0.369-0.887-0.938-1.677-1.664-2.307c-0.783-0.694-1.609-1.142-2.479-1.346
		c-0.923-0.21-1.868-0.313-2.815-0.305h-1.38v13.526H101.587z M112.701,6.224h8.847v1.765h-6.944v5.066h6.738v1.765h-6.738v6.695
		h6.944v1.765h-8.847V6.224z M62.314,4.845l6.196,14.318l6.222-14.318l3.459,18.027h-1.943l-2.194-11.536h-0.046L68.51,23.573
		l-5.473-12.237h-0.045l-2.195,11.536h-1.946L62.314,4.845z M87.482,5.932c-4.901,0-8.877,3.952-8.877,8.826
		s3.976,8.826,8.877,8.826s8.875-3.952,8.875-8.826S92.385,5.932,87.482,5.932z M87.482,21.819c-3.862,0-6.992-3.162-6.992-7.062
		c0-3.9,3.13-7.062,6.992-7.062c3.863,0,6.992,3.162,6.992,7.062C94.475,18.657,91.346,21.819,87.482,21.819z M38.903,18.002
		l-2.058,4.841h-2.081l7.872-17.87l7.668,17.87H48.2l-2.014-4.841l-0.747-1.764L42.59,9.407l-2.918,6.831L38.903,18.002z"/>
	<circle fill="#FFFFFF" cx="42.534" cy="19.211" r="1.155"/>
	<circle fill="#FFFFFF" cx="135.113" cy="13.908" r="1.155"/>
	<circle fill="#FFFFFF" cx="14.387" cy="13.908" r="1.155"/>
	<circle fill="#FFFFFF" cx="70.851" cy="39.871" r="1.155"/>
</g>
</svg>
