<svg xmlns="http://www.w3.org/2000/svg" width="180" height="135" viewBox="0 0 180 135"><switch><g><path fill="#A19F9F" d="M33.893 26.613l.282-.163v1.441l-.282.164v-1.442zm-.48 1.722l.282-.164V26.73l-.287.166.005 1.439zm2.101-1.223l.286-.167v-1.441l-.286.166v1.442zm3.742-8.642v9.663l-8.006 4.662-10.062-5.859v-9.663l8.021-4.631 10.047 5.828zm-11.542-3.267l7.831 4.623 1.595-.884-7.932-4.602-1.494.863zm2.753 8.273l-7.826-4.53v7.146l7.826 4.549v-7.165zm2.315-2.121l-7.731-4.616-1.637.945 7.814 4.532 1.554-.861zm5.008-1.093l-1.409.781v2.618l-.01.006v.011L33.612 25.2v-.009l-.009.005v-2.615l-1.666.922v7.192l5.853-3.407v-7.026zm-3.223 7.401l.282-.164v-1.442l-.282.164v1.442zm1.645-.958l.237-.138.044-.026V25.1l-.281.164v1.441zm-1.173.684l.281-.164v-1.442l-.281.164v1.442zM30.038 3.538c-5.175 0-10.231 2.073-13.653 5.434L13.12 5.707 11 17.322l11.614-2.12-3.301-3.302c2.672-2.61 6.694-4.22 10.725-4.22 8.185 0 14.819 6.635 14.819 14.82s-6.635 14.82-14.819 14.82c-8.161 0-14.781-6.598-14.819-14.75l-4.123.778c.444 10.079 8.754 18.113 18.942 18.113C40.511 41.462 49 32.973 49 22.5S40.511 3.538 30.038 3.538z"/><g fill-rule="evenodd" clip-rule="evenodd" fill="#A19F9F"><path d="M76.957 29.43c0-7.238 5.805-13.02 13.057-13.034 7.264-.016 13.117 6.03 13.027 13.227-.086 7.07-5.924 12.882-13.1 12.877-7.171-.006-12.984-5.856-12.984-13.07zm14.252 3.996c0-.55.035-1.068-.006-1.581-.078-.964.188-1.743.883-2.462.725-.751.801-1.729.379-2.678-.432-.967-1.213-1.508-2.287-1.544a2.567 2.567 0 0 0-2.48 1.552c-.432.98-.234 2.072.553 2.871.494.502.756 1.068.723 1.786-.033.676-.008 1.354-.008 2.056h2.243z"/><path d="M80.086 16.884c.143-2.357-.23-4.668.313-6.943.938-3.928 4.408-6.971 8.406-7.385 5.316-.549 9.971 2.965 10.852 8.199.076.463.107.936.111 1.404.014 1.525.006 3.049.006 4.656-.17-.104-.289-.166-.396-.244-1.268-.922-2.633-1.66-4.121-2.152-.348-.115-.422-.295-.424-.631-.004-.824.051-1.67-.104-2.471-.492-2.541-2.789-4.152-5.418-3.887-2.381.242-4.262 2.398-4.268 4.895-.002.551.012 1.104-.012 1.654-.004.131-.096.322-.201.371-.805.377-1.646.684-2.432 1.098-.769.407-1.484.917-2.312 1.436z"/></g><path fill="#A19F9F" d="M168.421 21.914c.026.959-.07 2.59-.296 3.825l-3.92-1.053c.147-.912.207-1.813.181-2.772h4.035zm-.97 6.52l-3.922-1.01c-.32.883-.724 1.723-1.201 2.516l3.295 2.342a18.34 18.34 0 0 0 1.828-3.848zm-6.738 9.078a18.554 18.554 0 0 0 3.321-3.061l-3.303-2.348a14.628 14.628 0 0 1-2.065 1.906l2.047 3.503zM131.5 22.5c0 10.198 8.267 18.463 18.462 18.463 3.049 0 5.924-.74 8.457-2.047l-2.038-3.49a14.354 14.354 0 0 1-6.418 1.504c-7.97 0-14.43-6.461-14.43-14.43 0-7.97 6.46-14.431 14.43-14.431 3.925 0 7.841 1.568 10.442 4.111l-3.214 3.213 11.309 2.064-2.064-11.309-3.179 3.178c-3.331-3.271-8.256-5.289-13.295-5.289-10.195.001-18.462 8.266-18.462 18.463zm23.11 5.555v-2.686h-4.606v-2.025l4.917-6.613h2.185v6.142h.96v2.497h-.96v2.686h-2.496zm0-5.182V20.6l-1.99 2.273h1.99zm-12.668 4.961c0-1.59.414-2.826 2-4.002 1.868-1.383 3.271-1.926 3.271-3.208 0-.848-.52-1.496-1.34-1.496-1.143 0-1.427 1.248-1.427 2.209h-2.352c-.099-3.071 1.573-4.364 3.869-4.364 2.128 0 3.673 1.479 3.673 3.429 0 .975-.303 1.623-.952 2.307-1.029 1.084-2.57 1.7-3.581 2.661h4.324v2.686h-7.486v-.222h.001z"/><g fill="#A19F9F"><path d="M8 72.98h28.727V53.885c0-1.976-1.47-1.993-1.47-1.993H8V72.98zM18.959 74.973h19.429v2.489H18.959z"/><circle cx="43.7" cy="78.958" r="4.15"/><circle cx="13.479" cy="78.958" r="4.149"/><path d="M51.835 79.124h-1.994s.831-5.978-6.141-5.978h-5.647V59.531s0-1.993 1.828-1.993h6.31S52 62.521 52 67.668c0 5.145-.165 11.456-.165 11.456z"/></g><path fill="#A19F9F" d="M104.16 71.659v-6.015c0-2.682 3.557-2.742 3.557 0v7.544c0 1.396-.123 2.06-.998 3.659-1.387 2.519-3.926 6.667-3.926 11.652h-8.756s-.979-3.079-1.336-5.148c-.713-4.159.225-6.075 1.947-7.85 1.783-1.845 2.67-2.711 3.486-3.558 1.896-1.957 4.465.337 2.967 2.141-.816.979-2.846 3.161-3.324 3.803-.469.622.408 1.499 1.092.785.998-1.05 3.332-3.64 4.139-4.577.763-.917 1.152-1.467 1.152-2.436zm-28.32 0v-6.015c0-2.682-3.557-2.742-3.557 0v7.544c0 1.396.121 2.06.998 3.659 1.387 2.519 3.926 6.056 3.926 11.652h8.756s.979-3.079 1.336-5.148c.713-4.159-.225-6.075-1.947-7.85-1.785-1.845-2.672-2.711-3.486-3.558-1.896-1.957-4.465.337-2.967 2.141.814.979 2.844 3.161 3.322 3.803.471.622-.406 1.499-1.09.785-1-1.05-3.334-3.64-4.139-4.577-.765-.917-1.152-1.467-1.152-2.436zm18.879-6.993l.367-.214v1.876l-.367.213v-1.875zm-.621 2.232l.367-.214v-1.876l-.377.215.01 1.875zm2.732-1.589l.377-.215v-1.875l-.377.214v1.876zm4.861-11.235v12.559l-10.408 6.066-13.078-7.615V52.525L88.633 46.5l13.058 7.574zm-15.003-4.24l10.184 6.014 2.068-1.151-10.307-5.984-1.945 1.121zm3.578 10.754l-10.174-5.892v9.286l10.174 5.913v-9.307zm3.005-2.762L83.22 51.821l-2.131 1.233 10.154 5.893 2.028-1.121zm6.514-1.418l-1.834 1.02v3.405l-.01.011v.01l-3.59 1.978v-.021l-.01.01v-3.404l-2.16 1.203v9.348l7.604-4.434v-9.126zm-4.189 9.624l.367-.214v-1.876l-.367.214v1.876zm2.14-1.254l.307-.184.061-.03v-1.876l-.367.214v1.876h-.001zm-1.529.898l.367-.215v-1.875l-.367.213v1.877z"/><g fill-rule="evenodd" clip-rule="evenodd" fill="#A19F9F"><path d="M175.058 60.317h-10.469c.195-.322.369-.624.563-.913.038-.056.161-.072.246-.073 1.661-.004 3.323-.003 4.984-.003 1.293 0 2.586.003 3.879-.003.142-.001.229.034.3.161.151.273.318.535.497.831zM165.526 58.778c.164-.269.298-.518.462-.744.05-.069.181-.108.274-.109 2.189-.006 4.378-.005 6.564-.004.259.001.567-.076.761.038.203.121.296.428.437.653.027.046.048.095.084.166h-8.582zM158.843 64.625h-17.616c.3-.489.569-.949.867-1.393.046-.066.221-.066.336-.066 2.766-.004 5.532-.002 8.299-.002 2.313 0 4.626.002 6.938-.006.215 0 .341.057.446.248.217.395.461.774.73 1.219zM157.429 62.302h-14.78c.275-.455.521-.883.796-1.29.054-.078.228-.103.347-.104 2.346-.005 4.692-.004 7.037-.004 1.826 0 3.651.004 5.478-.004.199-.002.322.049.422.228.211.384.447.755.7 1.174zM143.973 60.128c.231-.38.42-.73.652-1.051.069-.097.255-.153.388-.153 3.09-.009 6.179-.008 9.268-.006.364 0 .801-.107 1.073.054.287.17.418.604.615.923.039.063.068.134.119.233h-12.115zM135.466 60.317h-10.469c.195-.322.369-.624.563-.913.038-.056.161-.072.246-.073 1.661-.004 3.323-.003 4.984-.003 1.293 0 2.586.003 3.879-.003.142-.001.229.034.3.161.151.273.318.535.497.831zM125.935 58.778c.164-.269.298-.518.462-.744.05-.069.181-.108.274-.109 2.189-.006 4.378-.005 6.564-.004.259.001.567-.076.761.038.203.121.296.428.437.653.027.046.048.095.084.166h-8.582z"/><path d="M163.699 79.5h-27.398v-.38c0-4.384-.002-8.767.007-13.151 0-.186.057-.396.154-.555 1.973-3.225 3.955-6.443 5.93-9.668.113-.184.237-.246.45-.246 4.782.006 9.564.006 14.347 0 .215 0 .333.066.446.252 1.945 3.189 3.902 6.373 5.844 9.564.129.213.211.49.212.736.012 4.34.009 8.68.009 13.021l-.001.427zm-24.226-13.854h21.031c-.043-.088-.064-.148-.098-.203-1.43-2.354-2.861-4.703-4.285-7.061-.103-.168-.218-.209-.399-.209-3.798.006-7.596.006-11.394-.002-.233 0-.353.082-.467.271-1.024 1.693-2.057 3.383-3.087 5.072l-1.301 2.132zm10.55 2.614c-1.118 0-2.236 0-3.354.002-.044 0-.089.004-.132.008a1.108 1.108 0 0 0-1.023 1.105c.006.563.475 1.086 1.043 1.09 2.291.014 4.581.018 6.871-.002.835-.006 1.319-.961.885-1.672-.237-.387-.596-.535-1.038-.533-1.084.004-2.168.002-3.252.002zM179.493 62.976c0-.175-.059-.371-.149-.521-1.376-2.262-2.762-4.516-4.14-6.776-.081-.131-.164-.178-.316-.178-3.387.004-6.774.004-10.162 0-.151 0-.238.045-.319.176-.648 1.059-1.298 2.116-1.947 3.174l1.111 1.82c.627-1.027 1.255-2.055 1.877-3.084.081-.135.166-.193.331-.193 2.69.007 5.38.006 8.07.002.129 0 .211.029.282.148 1.01 1.67 2.023 3.334 3.036 5.001.023.038.038.081.068.144h-12.434l.813 1.33c.369.606.573 1.326.576 2.025.006 2.154.005 4.305.005 6.457H179.5v-.302c0-3.076.002-6.149-.007-9.223zm-7.268 3.123c-1.622.014-3.244.011-4.867.001-.402-.002-.734-.372-.739-.771a.787.787 0 0 1 .726-.783.968.968 0 0 1 .094-.006l2.375-.001c.768 0 1.535.001 2.303-.001.314-.001.568.104.735.377.307.504-.036 1.18-.627 1.184zM136.06 61.287c-.036-.063-.075-.125-.109-.187-.073-.136-.163-.176-.315-.176-1.639.006-3.276.004-4.914.004-1.96 0-3.92-.001-5.879.002-.082 0-.205 0-.238.047-.21.314-.401.64-.614.986h11.655l.414-.676z"/><path d="M164.359 61.964h11.7c-.19-.315-.362-.584-.518-.863-.073-.136-.163-.176-.315-.176-1.639.006-3.276.004-4.914.004-1.96 0-3.92-.001-5.879.002-.082 0-.205 0-.238.047-.076.113-.148.239-.222.355.13.21.257.421.386.631zM133.807 65.963a3.6 3.6 0 0 1 .526-1.862l.867-1.413h-12.453c.319-.525.621-1.017.922-1.51.729-1.196 1.462-2.393 2.187-3.592.081-.135.166-.193.331-.193 2.69.007 5.38.006 8.07.002.129 0 .211.029.282.148.631 1.045 1.266 2.086 1.898 3.127l1.08-1.761.035-.056c-.647-1.059-1.295-2.116-1.94-3.176-.081-.131-.164-.178-.316-.178-3.387.004-6.774.004-10.162 0-.151 0-.238.045-.319.176-1.398 2.283-2.803 4.563-4.2 6.847a.799.799 0 0 0-.109.393c-.006 3.106-.005 6.211-.005 9.316v.269h13.303c0-2.179-.001-4.357.003-6.537zm-1.174.136c-1.622.014-3.244.011-4.867.001-.402-.002-.734-.372-.739-.771a.787.787 0 0 1 .726-.783.968.968 0 0 1 .094-.006l2.375-.001c.768 0 1.535.001 2.303-.001.314-.001.568.104.735.377.307.504-.035 1.18-.627 1.184z"/></g><g fill="#A19F9F"><path d="M24.276 114.06L22.211 112h7.119l3.65-.471-10.236-9.993L12.5 112H17v14h10v-9.223z"/><path d="M27.145 113l10.099 10.244L47.5 113H41V99H31v8.148l3.725 3.256L37.793 113z"/></g></g></switch></svg>