<svg xmlns="http://www.w3.org/2000/svg" width="480" height="128" viewBox="0 0 480 128"><switch><g><path fill="#010101" d="M325.094 26.717h-27.738v20.381c-4.67-13.205-17.622-21.295-32.732-21.295-15.256 0-28.313 8.242-32.871 21.666v-20.86h-19.301v21.755h-18.067V26.61H175.09v15.882c-1.808-13.137-13.162-17.683-25.904-17.683-3.11 0-6.19.368-9.073 1.12l9.065-21.034h-11.091l-42.204 97.937h11.093l14.538-33.74c.976 18.88 20.535 21.332 27.493 21.332 10.253 0 21.072-2.854 26.083-10.844v9.661h19.295V64.416h18.067v24.825h19.301V69.17c4.547 13.436 17.554 21.187 32.871 21.187 15.164 0 28.076-7.61 32.732-20.816v19.814h20.848V70.492h11.625c12.711 0 20.686-7.97 20.686-20.76-.001-15.533-10.798-23.015-25.421-23.015zM150.67 76.563c-3.596 0-7.805-.792-9.209-4.563-.437-1.14-.699-2.54-.699-4.121h-18.729l5.383-12.486c4.117 4.604 11.215 6.432 17.729 8.273 10.788 3.072 13.509 3.95 13.509 7.194 0 4.65-4.826 5.703-7.984 5.703zm9.65-25.791c-8.857-2.457-17.806-3.417-18.158-7.893 0-3.51 4.299-4.21 6.928-4.21 1.932 0 4.128.436 5.703 1.578 1.58 1.05 2.635 2.632 2.281 4.998h18.014v14.016c-3.301-4.573-9.008-6.89-14.768-8.489zm104.303 21.76c-7.971 0-13.547-5.672-13.547-13.929 0-7.682 5.186-14.117 13.547-14.117 8.357 0 13.553 6.436 13.553 14.117 0 8.257-5.588 13.93-13.553 13.929zm56.431-17.271h-2.851V42.199h2.75c4.758 0 10.683.293 10.683 6.188 0 6.078-5.498 6.875-10.582 6.874zM106.342 4.896L90.015 46.368 68.39 5.465 46.93 46.368 30.476 5.02H4.224l42 97.813L68.39 61.932l21.923 40.901 42.198-97.937h-26.169zm18.609 105.382a5.756 5.756 0 0 0-.485-1.252 3.542 3.542 0 0 0-.796-.989 3.54 3.54 0 0 0-1.135-.647c-.435-.154-.937-.23-1.512-.23-.838 0-1.56.168-2.171.506a4.234 4.234 0 0 0-1.489 1.354 6.095 6.095 0 0 0-.849 1.922c-.185.718-.274 1.453-.274 2.199s.09 1.479.274 2.196c.185.72.468 1.36.849 1.925a4.253 4.253 0 0 0 1.489 1.354c.61.337 1.333.505 2.17.505.62 0 1.163-.106 1.634-.32a3.618 3.618 0 0 0 1.213-.878c.336-.374.603-.811.795-1.309a6.297 6.297 0 0 0 .373-1.604h2.69c-.06.937-.26 1.796-.606 2.572-.33.755-.807 1.438-1.401 2.01s-1.3 1.017-2.07 1.31c-.796.308-1.67.461-2.626.461-1.174 0-2.232-.215-3.162-.647a6.963 6.963 0 0 1-2.373-1.771 7.924 7.924 0 0 1-1.486-2.616 9.595 9.595 0 0 1-.519-3.187c0-1.115.171-2.17.519-3.166a7.945 7.945 0 0 1 1.486-2.617 7.04 7.04 0 0 1 2.373-1.781c.93-.439 1.988-.66 3.162-.66.883 0 1.713.121 2.494.363a6.448 6.448 0 0 1 2.061 1.056 5.476 5.476 0 0 1 1.444 1.681c.366.659.597 1.416.683 2.264h-2.755zm5.283-4.987h2.756v13.323h8.004v2.373h-10.761l.001-15.696zm19.336-.376c1.176 0 2.23.221 3.166.66a7.083 7.083 0 0 1 2.368 1.781 7.914 7.914 0 0 1 1.49 2.617 9.63 9.63 0 0 1 .519 3.166c0 1.127-.175 2.19-.519 3.187a7.904 7.904 0 0 1-1.49 2.616 6.98 6.98 0 0 1-2.37 1.771c-.934.433-1.988.646-3.164.646-1.175 0-2.232-.213-3.162-.646a6.943 6.943 0 0 1-2.373-1.771 7.882 7.882 0 0 1-1.487-2.616 9.593 9.593 0 0 1-.517-3.187c0-1.115.17-2.17.517-3.166a7.912 7.912 0 0 1 1.487-2.617 7.046 7.046 0 0 1 2.373-1.781c.93-.439 1.988-.66 3.162-.66zm0 2.243c-.839 0-1.563.17-2.171.507a4.23 4.23 0 0 0-1.491 1.354 6.116 6.116 0 0 0-.848 1.922c-.184.718-.275 1.453-.275 2.199s.09 1.479.275 2.196c.184.72.469 1.36.848 1.925a4.264 4.264 0 0 0 1.49 1.354c.61.337 1.333.505 2.17.505.838 0 1.563-.168 2.176-.505a4.249 4.249 0 0 0 1.485-1.354 5.99 5.99 0 0 0 .851-1.925 8.867 8.867 0 0 0 0-4.396 5.974 5.974 0 0 0-.851-1.922 4.268 4.268 0 0 0-1.485-1.354c-.612-.337-1.336-.506-2.174-.506zm9.883-1.867h2.758v9.146c0 .526.023 1.063.076 1.604.052.541.199 1.029.441 1.464.243.433.607.788 1.1 1.063.496.279 1.188.42 2.086.42.896 0 1.593-.139 2.084-.42.494-.275.859-.631 1.104-1.063.247-.452.397-.95.44-1.464.05-.541.076-1.077.076-1.604v-9.146h2.756v10.045c0 1.013-.153 1.892-.463 2.64a5.08 5.08 0 0 1-1.313 1.881 5.53 5.53 0 0 1-2.04 1.131c-.794.25-1.675.371-2.646.371s-1.853-.123-2.646-.371a5.494 5.494 0 0 1-2.04-1.131 5.116 5.116 0 0 1-1.31-1.881c-.312-.748-.465-1.627-.465-2.64v-10.045h.002zm16.09 0h6.529c1.203 0 2.245.203 3.129.615.881.409 1.603.97 2.162 1.68.56.712.971 1.544 1.245 2.496.273.953.406 1.97.406 3.058a10.971 10.971 0 0 1-.406 3.053c-.274.955-.687 1.787-1.245 2.496-.56.713-1.281 1.273-2.162 1.685-.884.41-1.926.614-3.131.614h-6.527v-15.697zm2.757 13.452h2.711c1.071 0 1.95-.141 2.635-.43.683-.285 1.22-.68 1.612-1.185a4.34 4.34 0 0 0 .794-1.782c.137-.68.207-1.414.207-2.207 0-.791-.07-1.529-.207-2.211a4.318 4.318 0 0 0-.794-1.779c-.391-.508-.93-.902-1.612-1.188-.685-.287-1.563-.43-2.635-.43h-2.71l-.001 11.212zm21.87 4.36a32.45 32.45 0 0 1-1.247-2.176 17.491 17.491 0 0 1-1.013-2.365 16.96 16.96 0 0 1-.916-5.595c0-1.774.276-3.518.828-5.229a20.146 20.146 0 0 1 2.348-4.905h2.05a22.347 22.347 0 0 0-2.017 4.868c-.461 1.665-.695 3.42-.695 5.267s.222 3.604.662 5.277a19.216 19.216 0 0 0 2.05 4.86h-2.05v-.002zm3.556-17.812h11.333v2.374h-8.578v4.111h7.938v2.24h-7.938v4.598h8.73v2.373h-11.485v-15.696zm14.106-2.459c.438.702.851 1.435 1.234 2.187.381.754.717 1.547 1.002 2.375.286.828.514 1.705.682 2.627.17.922.257 1.914.257 2.969a17 17 0 0 1-.826 5.232 19.991 19.991 0 0 1-2.349 4.881h-2.053a21.856 21.856 0 0 0 2.019-4.848c.463-1.664.694-3.42.694-5.266s-.222-3.606-.66-5.277a19.41 19.41 0 0 0-2.053-4.88h2.053zm16.564 7.446a5.544 5.544 0 0 0-.486-1.252 3.564 3.564 0 0 0-.793-.989 3.535 3.535 0 0 0-1.138-.647c-.435-.154-.937-.23-1.51-.23-.837 0-1.562.168-2.17.506a4.222 4.222 0 0 0-1.491 1.354 6.02 6.02 0 0 0-.848 1.922 8.852 8.852 0 0 0 0 4.395c.184.72.467 1.36.848 1.925s.893 1.028 1.49 1.354c.609.337 1.334.505 2.17.505.62 0 1.162-.106 1.632-.32a3.616 3.616 0 0 0 1.215-.878c.337-.374.601-.811.793-1.309a6.232 6.232 0 0 0 .375-1.604h2.691a7.555 7.555 0 0 1-.606 2.572 6.318 6.318 0 0 1-1.4 2.01 6.182 6.182 0 0 1-2.075 1.31c-.793.308-1.668.461-2.624.461-1.176 0-2.23-.215-3.163-.647a6.946 6.946 0 0 1-2.371-1.771 7.85 7.85 0 0 1-1.485-2.616 9.621 9.621 0 0 1-.519-3.187c0-1.115.17-2.17.519-3.166a7.89 7.89 0 0 1 1.485-2.617 7.058 7.058 0 0 1 2.371-1.781c.933-.439 1.987-.66 3.163-.66.883 0 1.713.121 2.495.363a6.446 6.446 0 0 1 2.06 1.056 5.462 5.462 0 0 1 1.444 1.681c.366.659.597 1.416.685 2.264h-2.757v-.004zm11.986-5.363c1.178 0 2.229.221 3.166.66a7.08 7.08 0 0 1 2.37 1.781 7.914 7.914 0 0 1 1.49 2.617c.342.996.517 2.051.517 3.166a9.76 9.76 0 0 1-.517 3.187 7.904 7.904 0 0 1-1.49 2.616 6.964 6.964 0 0 1-2.37 1.771c-.935.433-1.988.646-3.166.646-1.175 0-2.229-.213-3.162-.646a6.953 6.953 0 0 1-2.373-1.771 7.886 7.886 0 0 1-1.485-2.616 9.595 9.595 0 0 1-.519-3.187c0-1.115.17-2.17.519-3.166a7.925 7.925 0 0 1 1.485-2.617 7.046 7.046 0 0 1 2.373-1.781c.932-.439 1.987-.66 3.162-.66zm0 2.243c-.839 0-1.56.17-2.171.507a4.234 4.234 0 0 0-1.489 1.354 6.045 6.045 0 0 0-.849 1.922 8.77 8.77 0 0 0-.275 2.199c0 .746.09 1.479.275 2.196.184.72.468 1.36.849 1.925s.892 1.028 1.489 1.354c.611.337 1.332.505 2.171.505.84 0 1.563-.168 2.175-.505a4.237 4.237 0 0 0 1.484-1.354 6.012 6.012 0 0 0 .851-1.925 8.89 8.89 0 0 0 0-4.396 6.006 6.006 0 0 0-.851-1.922 4.265 4.265 0 0 0-1.484-1.354c-.612-.337-1.336-.506-2.175-.506zm10.017-1.867h3.88l4.344 12.29h.043l4.236-12.29h3.836v15.696h-2.625v-12.114h-.041l-4.369 12.114h-2.271l-4.365-12.114h-.045v12.114h-2.623v-15.696zm19.618 0h3.879l4.345 12.29h.045l4.235-12.29h3.834v15.696h-2.623v-12.114h-.043l-4.366 12.114h-2.272l-4.365-12.114h-.045v12.114h-2.623v-15.696h-.001zm19.602 0h11.332v2.374h-8.578v4.111h7.938v2.24h-7.938v4.598h8.732v2.373h-11.486v-15.696zm13.907 0h7.521c1.732 0 3.033.371 3.902 1.12.866.747 1.301 1.788 1.301 3.122 0 .745-.11 1.366-.334 1.856-.217.491-.478.889-.77 1.189-.294.299-.584.516-.871.646a6.23 6.23 0 0 1-.631.265v.043c.237.03.49.104.762.222a2.2 2.2 0 0 1 .76.561c.238.257.431.59.586 1 .156.41.233.922.233 1.537 0 .924.068 1.765.21 2.52.141.755.355 1.293.649 1.615h-2.957a2.576 2.576 0 0 1-.361-1.122c-.038-.41-.056-.804-.056-1.185 0-.719-.044-1.338-.135-1.858-.086-.521-.25-.955-.482-1.3a2.072 2.072 0 0 0-.96-.758c-.405-.16-.922-.242-1.555-.242h-4.058v6.465h-2.755v-15.696zm2.755 7.144h4.521c.884 0 1.55-.209 2.006-.625.455-.42.684-1.045.684-1.881 0-.498-.074-.906-.221-1.221a1.77 1.77 0 0 0-.607-.734 2.22 2.22 0 0 0-.881-.354 5.785 5.785 0 0 0-1.025-.089h-4.477v4.904zm23.422-2.157a5.589 5.589 0 0 0-.485-1.252 3.518 3.518 0 0 0-.794-.989 3.53 3.53 0 0 0-1.137-.647c-.434-.154-.937-.23-1.511-.23-.838 0-1.56.168-2.171.506a4.263 4.263 0 0 0-1.49 1.354 6.063 6.063 0 0 0-.847 1.922 8.798 8.798 0 0 0 0 4.396c.185.72.466 1.36.847 1.925a4.3 4.3 0 0 0 1.49 1.354c.61.337 1.333.505 2.17.505.62 0 1.163-.106 1.633-.32.471-.211.875-.504 1.213-.878s.604-.811.795-1.309c.19-.497.316-1.034.375-1.604h2.689a7.436 7.436 0 0 1-.607 2.572 6.167 6.167 0 0 1-3.473 3.319c-.795.308-1.67.461-2.623.461-1.176 0-2.232-.215-3.162-.647a6.934 6.934 0 0 1-2.373-1.771 7.882 7.882 0 0 1-1.487-2.616 9.647 9.647 0 0 1-.519-3.187c0-1.115.17-2.17.519-3.166a7.912 7.912 0 0 1 1.487-2.617 7.01 7.01 0 0 1 2.373-1.781c.93-.439 1.986-.66 3.162-.66.881 0 1.713.121 2.492.363a6.441 6.441 0 0 1 2.061 1.056 5.499 5.499 0 0 1 1.447 1.681c.363.659.592 1.416.682 2.264h-2.756v-.004zm5.285-4.987h11.334v2.374h-8.578v4.111h7.938v2.24h-7.938v4.598h8.729v2.373h-11.485v-15.696zm20.043 0h6.942c1.118 0 2.03.16 2.735.481.707.324 1.25.726 1.632 1.209.383.486.642 1.013.784 1.584.137.572.209 1.099.209 1.582 0 .484-.072 1.009-.209 1.57a4.145 4.145 0 0 1-.784 1.575c-.382.481-.925.884-1.63 1.197-.709.315-1.619.473-2.737.473h-4.188v6.024h-2.754v-15.695zm2.754 7.431h4.037c.305 0 .625-.043.946-.134.323-.087.623-.229.894-.428.272-.198.49-.46.66-.79.172-.331.256-.747.256-1.243 0-.513-.073-.938-.221-1.274a2.04 2.04 0 0 0-.598-.804 2.074 2.074 0 0 0-.857-.405 4.699 4.699 0 0 0-1.037-.112h-4.08v5.19zm11.944-7.431h2.755v13.323h8.005v2.373h-10.761l.001-15.696zm16.845 0h2.93l6.064 15.696h-2.955l-1.477-4.155h-6.284l-1.479 4.155h-2.842l6.043-15.696zm-.973 9.454h4.81l-2.36-6.75h-.065l-2.385 6.75zm7.951-9.454H412.3v2.374h-5.005v13.322h-2.758v-13.322h-4.985v-2.374zm14.559 0h10.87v2.374h-8.112v4.111h7.123v2.24h-7.123v6.971h-2.756v-15.696h-.002zm19.823-.376c1.179 0 2.23.221 3.167.66a7.07 7.07 0 0 1 2.367 1.781 7.86 7.86 0 0 1 1.49 2.617c.346.996.52 2.051.52 3.166 0 1.127-.174 2.19-.52 3.187a7.87 7.87 0 0 1-1.49 2.616 6.953 6.953 0 0 1-2.367 1.771c-.938.433-1.988.646-3.167.646-1.174 0-2.232-.213-3.163-.646a6.963 6.963 0 0 1-2.373-1.771 7.874 7.874 0 0 1-1.484-2.616 9.593 9.593 0 0 1-.521-3.187c0-1.115.172-2.17.521-3.166a7.923 7.923 0 0 1 1.484-2.617 7.092 7.092 0 0 1 2.373-1.781c.929-.439 1.99-.66 3.163-.66zm0 2.243c-.839 0-1.562.17-2.17.507a4.219 4.219 0 0 0-1.49 1.354 6.095 6.095 0 0 0-.849 1.922c-.186.718-.275 1.453-.275 2.199s.09 1.479.275 2.196c.185.72.468 1.36.849 1.925s.892 1.029 1.49 1.354c.608.337 1.331.505 2.17.505s1.562-.168 2.174-.505a4.243 4.243 0 0 0 1.486-1.354 5.966 5.966 0 0 0 .85-1.925 8.914 8.914 0 0 0 0-4.396 5.95 5.95 0 0 0-.85-1.922 4.261 4.261 0 0 0-1.486-1.354c-.613-.337-1.336-.506-2.174-.506zm10-1.867h7.52c1.733 0 3.036.371 3.903 1.12.866.747 1.3 1.788 1.3 3.122 0 .745-.109 1.366-.331 1.856-.22.491-.479.889-.77 1.189-.296.299-.585.516-.873.646-.205.1-.415.188-.629.265v.043c.236.03.488.104.762.222.271.117.525.303.762.561.233.257.428.59.583 1s.232.922.232 1.537c0 .924.07 1.765.21 2.52.139.755.355 1.293.65 1.615h-2.957a2.576 2.576 0 0 1-.361-1.122c-.04-.41-.055-.804-.055-1.185 0-.719-.044-1.338-.136-1.858-.088-.521-.25-.955-.484-1.3a2.061 2.061 0 0 0-.958-.758c-.405-.16-.923-.242-1.555-.242h-4.058v6.465h-2.755v-15.696zm2.755 7.144h4.521c.882 0 1.55-.209 2.006-.625.455-.42.683-1.045.683-1.881 0-.498-.073-.906-.22-1.221a1.762 1.762 0 0 0-.606-.734 2.23 2.23 0 0 0-.883-.354 5.692 5.692 0 0 0-1.025-.089h-4.476v4.904zm12.749-7.144h3.88l4.344 12.29h.046l4.234-12.29h3.835v15.696h-2.624v-12.114h-.045l-4.364 12.114h-2.271l-4.365-12.114h-.044v12.114h-2.625v-15.696h-.001zm-84.38-69.007c-.01 1.43-.267 2.735-.76 3.906-1.011 2.354-2.687 4.013-5.035 4.973-1.132.454-2.354.685-3.668.685a9.655 9.655 0 0 1-3.702-.735c-2.305-.981-3.939-2.662-4.904-5.032-.47-1.166-.701-2.45-.701-3.847 0-1.399.25-2.686.75-3.86 1.002-2.35 2.683-4.003 5.045-4.967a9.607 9.607 0 0 1 3.6-.69 9.48 9.48 0 0 1 3.581.69c2.356.953 4.032 2.61 5.035 4.967.504 1.174.759 2.48.759 3.91zm-2.046 0c0-2.325-.706-4.223-2.112-5.696-1.407-1.473-3.153-2.21-5.233-2.21-2.079 0-3.824.737-5.23 2.21-1.406 1.474-2.113 3.356-2.113 5.646 0 2.28.68 4.18 2.037 5.695 1.36 1.504 3.1 2.26 5.235 2.26 2.131 0 3.897-.737 5.305-2.209 1.405-1.478 2.111-3.376 2.111-5.696zm-9.206 5.469h-1.745v-10.59h4.021c1.279-.008 2.246.229 2.893.712.648.483.973 1.233.96 2.246 0 1.016-.26 1.745-.784 2.186-.523.444-1.183.706-1.972.785l2.97 4.66h-1.974l-2.733-4.522h-1.636v4.523zm1.934-6.005c.836 0 1.387-.078 1.666-.227.529-.29.795-.771.795-1.437 0-.839-.504-1.306-1.51-1.399a9.899 9.899 0 0 0-.79-.037h-2.096v3.1h1.935z"/></g></switch></svg>